<svg width="760" height="696" viewBox="0 0 760 696" fill="none" xmlns="http://www.w3.org/2000/svg">
<path d="M264.688 694.445H117.185C-41.7065 554.104 -95.9871 84.379 328.62 4.25391C676.281 -42.873 853.423 311.965 710.104 554.104C677.442 614.825 578.992 705.709 424.166 694.445C319.554 681.009 242.827 653.118 174.492 521.263C80.5192 307.391 232.027 167.009 347.798 151.871C467.056 136.278 513.886 185.238 542.956 207.93C654.037 294.638 631.296 554.104 452.292 554.104C370.484 547.927 328.327 512.5 308.5 475C285 430.554 285.5 371.5 311.184 332.677C339.373 297.661 394.5 270 446.5 322.5C474.728 351 459.944 405.429 430.673 424.852C449.62 440.523 485.27 429.392 504.716 402.06C515.389 388.103 522.363 344.095 504.716 311.964C496.5 288.747 454.733 234.581 369.768 244.046C284.802 253.511 233.181 341.529 242.838 424.852C260.622 517.105 328.62 609.626 474.728 599.577C618.848 575.93 678.4 440.524 662.333 332.677C644.689 214.246 555.28 111.329 409.52 96.775C289.131 88.5898 175.07 157.763 126.022 257.561C79.6434 364.982 88.1547 458.016 126.022 538.935C165.425 623.14 217.896 668.733 264.688 694.445Z" fill="white"/>
</svg>
